<svg width="91" height="52" viewBox="0 0 91 52" fill="none" xmlns="http://www.w3.org/2000/svg">
<path d="M87.2941 17.0088V2.74387H83.7537H82.5271H82.0293V7.54665L77.8279 0H63.5709L75.2712 21.0191H89.5282L87.2941 17.0088Z" fill="#AA5140"/>
<path d="M30.9871 0H16.734L28.4303 21.0191H42.6913L30.9871 0Z" fill="#257BB0"/>
<path d="M0 34.8458H14.2041L30.8634 0H16.6673L0 34.8458Z" fill="#00B0D5"/>
<path d="M54.4272 0H40.1742L51.8705 21.0191H66.1275L54.4272 0Z" fill="#597E5C"/>
<path d="M54.3878 0H40.1347L28.4344 21.0191H42.6914L54.3878 0Z" fill="#90B751"/>
<path d="M35.5629 8.20776L28.4344 21.0191H42.6914L35.5629 8.20776Z" fill="#005F3A"/>
<path d="M77.8276 0H63.5745L51.8703 21.0191H66.1312L77.8276 0Z" fill="#C96145"/>
<path d="M59.0069 8.20776L51.8744 21.0191H66.1354L59.0069 8.20776Z" fill="#47351C"/>
<path d="M31.5653 35.4928C28.3247 35.4928 27.0553 34.2383 27.0553 31.2217C27.0553 28.6381 28.6682 26.9805 31.2667 26.9805C32.4315 26.9805 33.1633 27.2045 33.7308 27.5032L33.1931 28.9816C32.6107 28.7576 32.1926 28.6232 31.3264 28.6232C30.1018 28.6232 29.0863 29.355 29.0863 31.2217C29.0863 33.0287 29.5941 33.8799 31.6997 33.8799C32.3718 33.8799 32.8347 33.7605 33.3723 33.6709L33.6561 35.209C32.999 35.3584 32.4614 35.4928 31.5653 35.4928Z" fill="#393F47"/>
<path d="M35.6492 35.3435V27.1895H37.6354V30.8782L40.4131 27.1895H42.6382L39.4872 31.0126L40.8611 32.5807C41.5182 33.3124 42.0708 33.7754 42.9071 33.9994L42.6382 35.5077C41.6227 35.448 40.6222 35.2688 39.5619 33.9397L37.6354 31.5353V35.3435H35.6492Z" fill="#393F47"/>
<path d="M46.642 35.4779C44.9844 35.4779 44.0286 34.6416 44.0286 33.0735C44.0286 31.0276 45.8804 30.6094 47.3887 30.5945L49.0016 30.5795V29.8627C49.0016 28.9219 48.464 28.6979 47.2842 28.6979C46.5076 28.6979 45.6116 28.9069 45.0142 29.0563L44.611 27.5778C45.3279 27.309 46.3882 26.9954 47.6426 26.9954C49.8976 26.9954 50.943 27.6674 50.943 29.4147V33.3871C50.943 33.7754 51.2716 33.865 51.6897 33.8949L51.6001 35.4181H51.167C50.3008 35.4181 49.36 35.209 49.1808 34.4922C48.6581 34.8805 47.8218 35.4779 46.642 35.4779ZM47.0901 33.9098C47.777 33.9098 48.5835 33.5365 49.0016 33.402V31.7892L47.4933 31.8489C46.5524 31.8639 45.9551 32.2521 45.9551 32.9242C45.9551 33.641 46.4628 33.9098 47.0901 33.9098Z" fill="#393F47"/>
<path d="M55.6393 35.3435V28.7128H52.996V27.1895H60.2538V28.7128H57.6105V35.3435H55.6393Z" fill="#393F47"/>
<path d="M61.9358 35.3435V27.1895H63.922V30.4899H67.3418V27.1895H69.328V35.3435H67.3418V32.0132H63.922V35.3435H61.9358Z" fill="#393F47"/>
<path d="M71.9619 35.3435V27.1895H73.9481V33.8202H75.2175C76.1284 33.8202 76.6063 33.3871 76.6063 32.5508C76.6063 31.595 75.9492 31.2516 74.9487 31.2516H74.0974V29.7432H75.0681C77.2933 29.7432 78.6373 30.7289 78.6373 32.5807C78.6373 34.1338 77.5024 35.3435 75.7551 35.3435H71.9619ZM79.5632 35.3435V27.1895H81.5644V35.3435H79.5632Z" fill="#393F47"/>
<path d="M87.8938 35.5227C85.3252 35.5227 83.6974 34.5968 83.6974 31.4009C83.6974 28.0706 85.3849 26.9954 87.6847 26.9954C90.0443 26.9954 91 28.5485 91 31.1022V31.8191H85.6836C85.6836 33.6111 86.8036 33.9098 88.2522 33.9098C88.8197 33.9098 89.7904 33.7157 90.4624 33.5813L90.776 35.1194C90.104 35.3285 89.0138 35.5227 87.8938 35.5227ZM85.7284 30.4899H88.9541C88.969 29.2654 88.4762 28.4141 87.4906 28.4141C86.49 28.4141 85.818 29.1459 85.7284 30.4899Z" fill="#393F47"/>
<path d="M27.5481 47.7884V39.6345H29.5343V43.3231L32.312 39.6345H34.5372L31.3861 43.4575L32.76 45.0256C33.4171 45.7574 33.9697 46.2203 34.806 46.4443L34.5372 47.9526C33.5217 47.8929 32.5211 47.7137 31.4608 46.3846L29.5343 43.9802V47.7884H27.5481Z" fill="#393F47"/>
<path d="M36.495 51.0738V39.6345H38.4663V40.2468C38.8845 39.9331 39.7656 39.4403 40.5571 39.4403C42.7523 39.4403 44.0516 40.635 44.0516 43.3829C44.0516 46.7878 41.9758 47.9377 39.7208 47.9377C39.2279 47.9377 38.8098 47.8929 38.4663 47.863V51.0738H36.495ZM39.7805 46.3995C41.244 46.3995 42.0355 45.1749 42.0355 43.5471C42.0355 41.994 41.5128 41.1129 39.9896 41.1129C39.437 41.1129 38.765 41.4265 38.4663 41.546V46.28C38.765 46.3099 39.1682 46.3995 39.7805 46.3995Z" fill="#393F47"/>
<path d="M49.6209 47.9676C47.0971 47.9676 45.6783 46.3846 45.6783 43.7861C45.6783 41.0382 47.3211 39.4254 49.7404 39.4254C52.4583 39.4254 53.7128 41.0233 53.7128 43.7114C53.7128 46.519 51.9804 47.9676 49.6209 47.9676ZM49.7254 46.3697C51.3084 46.3697 51.6967 45.1899 51.6967 43.7114C51.6967 42.3226 51.3084 41.0084 49.6956 41.0084C48.1126 41.0084 47.6795 42.3226 47.6795 43.7264C47.6795 45.2347 48.1723 46.3697 49.7254 46.3697Z" fill="#393F47"/>
<path d="M55.8473 47.7884V39.6345H59.4762C61.2384 39.6345 62.2689 40.3961 62.2689 41.7999C62.2689 42.666 61.7462 43.2485 61.1936 43.4725C61.8507 43.5919 62.687 44.1893 62.687 45.3691C62.687 46.8774 61.4326 47.7884 59.536 47.7884H55.8473ZM57.8335 46.3697H59.1029C59.969 46.3697 60.6411 46.1158 60.6411 45.3243C60.6411 44.5029 59.984 44.2789 58.9535 44.264H57.8335V46.3697ZM57.8335 43.0095H58.849C59.7898 43.0095 60.3573 42.6959 60.3573 42.009C60.3573 41.3071 59.7898 41.0532 58.8938 41.0532H57.8335V43.0095Z" fill="#393F47"/>
<path d="M64.152 48.0273L63.6144 46.4145C64.167 46.2203 64.8838 45.8768 65.2273 45.2645C65.6006 44.5776 65.8993 42.442 65.9889 39.6345H71.6339V47.7884H69.6477V41.1428H67.6764C67.4375 43.8906 67.1388 45.5632 66.6012 46.4742C66.1233 47.2508 65.287 47.7585 64.152 48.0273Z" fill="#393F47"/>
<path d="M74.2661 47.7884V39.6345H76.2524V43.9504L76.2076 45.1451L76.9841 43.9504L79.9709 39.6345H81.9571V47.7884H79.9709V43.5023L80.0008 42.3076L79.2391 43.5023L76.2524 47.7884H74.2661Z" fill="#393F47"/>
</svg>
