<svg width="68" height="68" viewBox="0 0 68 68" fill="none" xmlns="http://www.w3.org/2000/svg">
<circle cx="34" cy="34" r="34" fill="#DBE3F3"/>
<path d="M17.2156 38.7578C17.406 38.3913 17.6584 38.0935 18.0935 38.0215C18.7711 37.9108 19.3557 38.4123 19.3568 39.1287C19.3568 41.4437 19.3568 43.7577 19.3568 46.0727V46.4912H49.1016V46.1203C49.1016 43.7842 49.1016 41.4474 49.1016 39.1098C49.0923 38.9033 49.1451 38.6986 49.2533 38.5224C49.3614 38.3462 49.52 38.2064 49.7083 38.1212C49.8807 38.0289 50.0759 37.9883 50.2707 38.0042C50.4655 38.0201 50.6516 38.0919 50.8066 38.2108C50.9468 38.3023 51.0617 38.4277 51.1407 38.5754C51.2196 38.723 51.2601 38.8882 51.2584 39.0556C51.2584 41.9128 51.2584 44.7704 51.2584 47.6283C51.2558 47.903 51.1465 48.1659 50.9535 48.3614C50.7605 48.5569 50.4989 48.6696 50.2243 48.6757C50.1136 48.6757 50.0028 48.6757 49.8921 48.6757C39.4487 48.6757 29.0046 48.6786 18.5597 48.6845C17.9352 48.6845 17.4902 48.4896 17.2167 47.9272L17.2156 38.7578Z" fill="white"/>
<path d="M34.4952 14.633C35.0754 14.8544 35.3145 15.2718 35.3134 15.8929C35.3053 22.5934 35.3053 29.2936 35.3134 35.9933V36.4705C35.443 36.3454 35.526 36.2679 35.6079 36.1871C37.327 34.4931 39.0457 32.7977 40.764 31.1008C41.0729 30.7952 41.4139 30.6092 41.8634 30.6934C42.0467 30.7255 42.2185 30.8047 42.3619 30.9233C42.5053 31.0418 42.6154 31.1956 42.6814 31.3696C42.7474 31.5436 42.767 31.7318 42.7383 31.9156C42.7096 32.0995 42.6336 32.2727 42.5177 32.4183C42.4261 32.5295 42.3274 32.6345 42.2221 32.7328C39.8727 35.0497 37.5226 37.3662 35.1717 39.6824C34.4975 40.3467 33.9328 40.3467 33.2541 39.6757C30.8856 37.3433 28.5181 35.0113 26.1517 32.6796C25.8816 32.4139 25.6646 32.126 25.6812 31.7319C25.687 31.5376 25.7446 31.3484 25.8483 31.1839C25.9519 31.0195 26.0977 30.8858 26.2705 30.7967C26.4433 30.7077 26.6367 30.6665 26.8308 30.6776C27.0249 30.6886 27.2124 30.7514 27.374 30.8595C27.5094 30.9576 27.6347 31.0689 27.7482 31.1916C29.4215 32.8383 31.0941 34.4861 32.7659 36.135C32.8511 36.2192 32.9397 36.2989 33.1047 36.4539V35.9634C33.1047 29.308 33.1047 22.6521 33.1047 15.9959C33.1047 15.3681 33.304 14.8965 33.9018 14.6407L34.4952 14.633Z" fill="white"/>
</svg>
